<svg xmlns="http://www.w3.org/2000/svg" width="28" height="26" viewBox="0 0 28 26" fill="none">
  <g clip-path="url(#clip0_554_51663)">
    <path d="M14 0.5C6.26775 0.5 0 5.315 0 11.258C0 15.1249 2.65408 18.5139 6.64048 20.4101C6.34705 21.4712 5.58044 24.259 5.42711 24.8551C5.23678 25.5951 5.70468 25.5848 6.01397 25.3869C6.25453 25.2302 9.8497 22.8535 11.4014 21.8284C12.2447 21.9491 13.1118 22.0134 14 22.0134C21.7323 22.0134 28 17.1984 28 11.258C28 5.31757 21.7323 0.5 14 0.5Z" fill="#371D1E"/>
    <path d="M4.23122 9.27738H5.67193C5.67193 9.27738 5.67987 13.1237 5.67193 14.0204C5.67193 14.6756 7.1708 14.6833 7.16816 14.0307L7.17345 9.32876C7.17345 9.32876 7.65721 9.33133 8.60623 9.33133C9.50237 9.33133 9.50237 7.96186 8.60623 7.96186C7.59641 7.96186 4.22329 7.93359 4.22329 7.93359C3.37737 7.93359 3.38002 9.27738 4.22329 9.27738" fill="#FAE100"/>
    <mask id="mask0_554_51663" style="mask-type:luminance" maskUnits="userSpaceOnUse" x="3" y="7" width="7" height="8">
      <path d="M4.23122 9.27738H5.67193C5.67193 9.27738 5.67987 13.1237 5.67193 14.0204C5.67193 14.6756 7.1708 14.6833 7.16816 14.0307L7.17345 9.32876C7.17345 9.32876 7.65721 9.33133 8.60623 9.33133C9.50237 9.33133 9.50237 7.96186 8.60623 7.96186C7.59641 7.96186 4.22329 7.93359 4.22329 7.93359C3.37737 7.93359 3.38002 9.27738 4.22329 9.27738" fill="white"/>
    </mask>
    <g mask="url(#mask0_554_51663)">
      <path d="M9.50908 7.93359H3.38672V14.6833H9.50908V7.93359Z" fill="#FAE100"/>
    </g>
    <path d="M11.1288 9.52569L11.9298 11.9666H10.2591L11.1288 9.52569ZM10.23 8.38231C9.8758 9.14028 8.5937 12.7246 8.17074 13.6752C7.86409 14.3612 9.18849 14.9214 9.49513 14.2353L9.78328 13.2564H12.4188C12.4188 13.2564 12.329 13.2975 12.6779 14.1942C12.9608 14.9214 14.3301 14.4178 14.0472 13.6906C13.6428 12.6526 12.2417 8.91161 11.9853 8.38231C11.869 8.13822 11.446 7.96094 11.0363 7.96094C10.6979 7.96094 10.3675 8.0817 10.2274 8.38231" fill="#FAE100"/>
    <mask id="mask1_554_51663" style="mask-type:luminance" maskUnits="userSpaceOnUse" x="8" y="7" width="7" height="8">
      <path d="M11.1288 9.52569L11.9298 11.9666H10.2591L11.1288 9.52569ZM10.23 8.38231C9.8758 9.14028 8.5937 12.7246 8.17074 13.6752C7.86409 14.3612 9.18849 14.9214 9.49513 14.2353L9.78328 13.2564H12.4188C12.4188 13.2564 12.329 13.2975 12.6779 14.1942C12.9608 14.9214 14.3301 14.4178 14.0472 13.6906C13.6428 12.6526 12.2417 8.91161 11.9853 8.38231C11.869 8.13822 11.446 7.96094 11.0363 7.96094C10.6979 7.96094 10.3675 8.0817 10.2274 8.38231" fill="white"/>
    </mask>
    <g mask="url(#mask1_554_51663)">
      <path d="M14.3346 7.96094H7.86328V14.9239H14.3346V7.96094Z" fill="#FAE100"/>
    </g>
    <path d="M14.5547 8.60585C14.5547 9.82373 14.5626 13.7497 14.5626 13.7497C14.5626 13.7497 14.4463 14.5308 15.1363 14.5308C15.8262 14.5308 17.3515 14.5231 18.0283 14.5231C18.705 14.5231 18.7024 13.1228 18.0256 13.1228C17.3489 13.1228 16.1117 13.1151 16.1117 13.1151C16.1117 13.1151 16.117 9.48458 16.1144 8.60071C16.1144 8.1742 15.7231 7.96094 15.3345 7.96094C14.9459 7.96094 14.5521 8.17676 14.5547 8.60328" fill="#FAE100"/>
    <mask id="mask2_554_51663" style="mask-type:luminance" maskUnits="userSpaceOnUse" x="14" y="7" width="5" height="8">
      <path d="M14.5547 8.60585C14.5547 9.82373 14.5626 13.7497 14.5626 13.7497C14.5626 13.7497 14.4463 14.5308 15.1363 14.5308C15.8262 14.5308 17.3515 14.5231 18.0283 14.5231C18.705 14.5231 18.7024 13.1228 18.0256 13.1228C17.3489 13.1228 16.1117 13.1151 16.1117 13.1151C16.1117 13.1151 16.117 9.48458 16.1144 8.60071C16.1144 8.1742 15.7231 7.96094 15.3345 7.96094C14.9459 7.96094 14.5521 8.17676 14.5547 8.60328" fill="white"/>
    </mask>
    <g mask="url(#mask2_554_51663)">
      <path d="M18.704 7.96094H14.4453V14.5283H18.704V7.96094Z" fill="#FAE100"/>
    </g>
    <path d="M18.8857 8.41192C18.9016 8.94634 18.8672 13.7768 18.8672 14.1339C18.8672 14.6992 20.3475 14.6966 20.3475 14.1339C20.3475 13.4787 20.3475 12.2326 20.3475 12.2326L20.7811 11.8934L22.6818 14.4114C23.0651 14.9047 24.2732 14.0131 23.8898 13.5224L21.8729 10.9402C21.8729 10.9402 23.2422 9.50133 23.7815 8.97975C24.096 8.67656 23.1206 7.72075 22.806 8.02651C22.502 8.31942 20.3555 10.4083 20.3555 10.4083C20.3555 10.4083 20.374 9.09794 20.3555 8.37337C20.3475 8.09845 20.0012 7.96484 19.6444 7.96484C19.2637 7.96484 18.8751 8.11644 18.883 8.41192" fill="#FAE100"/>
    <mask id="mask3_554_51663" style="mask-type:luminance" maskUnits="userSpaceOnUse" x="18" y="7" width="6" height="8">
      <path d="M18.8857 8.41192C18.9016 8.94634 18.8672 13.7768 18.8672 14.1339C18.8672 14.6992 20.3475 14.6966 20.3475 14.1339C20.3475 13.4787 20.3475 12.2326 20.3475 12.2326L20.7811 11.8934L22.6818 14.4114C23.0651 14.9047 24.2732 14.0131 23.8898 13.5224L21.8729 10.9402C21.8729 10.9402 23.2422 9.50133 23.7815 8.97975C24.096 8.67656 23.1206 7.72075 22.806 8.02651C22.502 8.31942 20.3555 10.4083 20.3555 10.4083C20.3555 10.4083 20.374 9.09794 20.3555 8.37337C20.3475 8.09845 20.0012 7.96484 19.6444 7.96484C19.2637 7.96484 18.8751 8.11644 18.883 8.41192" fill="white"/>
    </mask>
    <g mask="url(#mask3_554_51663)">
      <path d="M24.2732 7.72266H18.8672V14.9066H24.2732V7.72266Z" fill="#FAE100"/>
    </g>
  </g>
  <defs>
    <clipPath id="clip0_554_51663">
      <rect width="28" height="25" fill="white" transform="translate(0 0.5)"/>
    </clipPath>
  </defs>
</svg>