<svg xmlns="http://www.w3.org/2000/svg" width="120" height="24" viewBox="0 0 120 24" fill="none">
  <mask id="mask0_748_13208" style="mask-type:luminance" maskUnits="userSpaceOnUse" x="0" y="0" width="120" height="24">
    <path d="M120 0H0V24H120V0Z" fill="white"/>
  </mask>
  <g mask="url(#mask0_748_13208)">
    <path d="M6.99386 1.59375H13.4721L20.466 23.5847H14.7761L13.4721 18.5369H6.81922L5.51692 23.5847H0L6.99386 1.59375ZM7.84211 14.4637H12.4443L11.9586 12.6038C11.3532 10.4196 10.7794 7.7863 10.1723 5.54862H10.0525C9.50866 7.85116 8.90158 10.4132 8.32611 12.6038L7.84211 14.4637Z" fill="#8E8E8E"/>
    <path d="M20.8936 18.1236V0H26.2841V18.302C26.2841 19.4241 26.798 19.7484 27.2221 19.7484C27.4256 19.7528 27.6289 19.7332 27.8275 19.69L28.4629 23.5573C27.6142 23.8735 26.71 24.0239 25.8017 24C22.1094 24 20.8969 21.6375 20.8969 18.1253" fill="#8E8E8E"/>
    <path d="M29.4324 18.1236V0H34.8212V18.302C34.8212 19.4241 35.3352 19.7484 35.7593 19.7484C35.9628 19.7528 36.166 19.7332 36.3647 19.69L37 23.5573C36.1513 23.8736 35.2471 24.024 34.3389 24C30.6449 24 29.434 21.6375 29.434 18.1253" fill="#8E8E8E"/>
    <path d="M43.8159 1.59375H58.1978V5.99291H49.2347V10.8039H56.9255V15.2015H49.2347V23.5847H43.8159V1.59375Z" fill="#8E8E8E"/>
    <path d="M60.4698 13.254V1.59375H65.8587V13.8151C65.8587 17.9775 67.131 19.4531 69.6126 19.4531C72.0658 19.4531 73.428 17.9775 73.428 13.8151V1.59375H78.6356V13.254C78.6356 20.6627 75.6085 23.9998 69.6126 23.9998C63.5867 23.9998 60.4648 20.6627 60.4648 13.254" fill="#8E8E8E"/>
    <path d="M82.1816 1.59375H90.4479C95.2612 1.59375 99.2629 3.21526 99.2629 8.53058C99.3541 9.8469 99.0322 11.1591 98.34 12.2928C97.6477 13.4264 96.618 14.3278 95.3876 14.8772L100.414 23.5847H94.3581L90.21 15.8517H87.6054V23.5847H82.1816V1.59375ZM90.0237 11.6893C92.5967 11.6893 93.9905 10.598 93.9905 8.53058C93.9905 6.46315 92.5967 5.78536 90.0237 5.78536H87.6004V11.6893H90.0237Z" fill="#8E8E8E"/>
    <path d="M102.107 1.59375H107.621L113.222 12.1336L115.433 16.9981H115.584C115.193 14.3069 114.951 11.5973 114.857 8.88083V1.59375H120.005V23.5847H114.49L108.92 12.9881L106.709 8.17709H106.558C106.801 10.6272 107.255 13.6383 107.255 16.2944V23.5912H102.107V1.59375Z" fill="#8E8E8E"/>
  </g>
</svg>