<svg xmlns="http://www.w3.org/2000/svg" width="134" height="134" viewBox="0 0 134 134" fill="none">
  <rect x="1" y="1" width="132" height="132" rx="66" fill="#46433F" stroke-width="2"/>
  <path d="M18.4078 59.3378C18.8931 57.6746 20.4177 56.5312 22.1503 56.5312C23.8828 56.5312 25.4075 57.6746 25.8928 59.3378L30.4835 75.0718C30.935 76.6192 29.7745 78.1667 28.1625 78.1667C27.0421 78.1667 26.0684 77.3968 25.81 76.3065L25.6624 75.6836C25.3175 74.2282 24.0177 73.2005 22.522 73.2005H21.6207C20.1252 73.2005 18.8258 74.2283 18.4813 75.6836L18.3206 76.3626C18.0703 77.42 17.1262 78.1667 16.0397 78.1667C14.4769 78.1667 13.3518 76.6664 13.7895 75.1662L18.4078 59.3378ZM20.4291 67.3633C20.2063 68.2967 20.9139 69.1931 21.8735 69.1931H22.2646C23.224 69.1931 23.9313 68.2964 23.7078 67.3633C23.1656 65.2312 22.6515 62.664 22.1083 60.4736C22.1007 60.4433 22.0735 60.4222 22.0423 60.4222C22.0103 60.4222 21.9826 60.4444 21.9758 60.4757C21.4879 62.7271 20.9445 65.225 20.4291 67.3633Z" fill="white"/>
  <path d="M31.7734 72.7935V57.3956C31.7734 56.052 32.8626 54.9629 34.2061 54.9629C35.5497 54.9629 36.6389 56.0521 36.6389 57.3956V72.969C36.6389 74.073 37.1027 74.392 37.4855 74.392C37.7821 74.399 38.0699 74.5861 38.1141 74.8794L38.3644 76.54C38.5058 77.4781 37.9858 78.431 37.0432 78.539C36.765 78.5709 36.4845 78.583 36.2035 78.5749C32.8708 78.5749 31.7764 76.2506 31.7764 72.7951" fill="white"/>
  <path d="M39.4531 72.7935V57.3949C39.4531 56.0517 40.542 54.9629 41.8851 54.9629C43.2282 54.9629 44.3171 56.0517 44.3171 57.3949V72.969C44.3171 74.073 44.7809 74.392 45.1637 74.392C45.4603 74.399 45.7481 74.5861 45.7923 74.8794L46.0426 76.5402C46.184 77.4782 45.6641 78.431 44.7216 78.539C44.4433 78.5709 44.1627 78.583 43.8817 78.5749C40.5475 78.5749 39.4546 76.2506 39.4546 72.7951" fill="white"/>
  <path d="M52.4453 63.0217C52.4453 59.4371 55.3512 56.5312 58.9358 56.5312H63.2623C64.4574 56.5312 65.4263 57.5001 65.4263 58.6953C65.4263 59.8904 64.4574 60.8593 63.2623 60.8593H59.7029C58.3958 60.8593 57.3363 61.9189 57.3363 63.2259C57.3363 64.533 58.3958 65.5925 59.7029 65.5925H62.1147C63.3094 65.5925 64.2779 66.5611 64.2779 67.7558C64.2779 68.9505 63.3094 69.919 62.1147 69.919H60.8071C58.8902 69.919 57.3363 71.4729 57.3363 73.3898V75.7212C57.3363 77.0718 56.2414 78.1667 54.8908 78.1667C53.5402 78.1667 52.4453 77.0718 52.4453 75.7212V63.0217Z" fill="white"/>
  <path d="M67.4654 68.003V58.9632C67.4654 57.6201 68.5543 56.5312 69.8974 56.5312C71.2405 56.5312 72.3294 57.6201 72.3294 58.9632V68.555C72.3294 72.6502 73.4778 74.1019 75.7176 74.1019C77.9319 74.1019 79.1614 72.6502 79.1614 68.555V58.8814C79.1614 57.5834 80.2136 56.5312 81.5115 56.5312C82.8095 56.5312 83.8617 57.5834 83.8617 58.8814V68.003C83.8617 75.292 81.1295 78.5751 75.7176 78.5751C70.2787 78.5751 67.4609 75.292 67.4609 68.003" fill="white"/>
  <path d="M87.0781 63.9923C87.0781 59.8717 90.4185 56.5312 94.5392 56.5312C98.8837 56.5312 102.496 58.1265 102.496 63.3559C102.578 64.651 102.287 65.942 101.662 67.0573C100.668 68.8318 99.7871 71.0904 100.739 72.8879L101.674 74.6529C102.518 76.247 101.362 78.1667 99.5583 78.1667C98.6462 78.1667 97.8134 77.6483 97.4107 76.83L94.7227 71.3679C94.4789 70.8725 93.9747 70.5587 93.4226 70.5587C92.6223 70.5587 91.9736 71.2075 91.9736 72.0077V75.719C91.9736 77.0708 90.8777 78.1667 89.5258 78.1667C88.174 78.1667 87.0781 77.0708 87.0781 75.719V63.9923ZM94.1563 66.4636C96.4787 66.4636 97.7367 65.3899 97.7367 63.3559C97.7367 61.3219 96.4787 60.6551 94.1563 60.6551C92.9483 60.6551 91.9691 61.6344 91.9691 62.8424V64.2763C91.9691 65.4843 92.9483 66.4636 94.1563 66.4636Z" fill="white"/>
  <path d="M105.102 59.5938C105.102 57.9024 106.473 56.5312 108.164 56.5312C109.335 56.5312 110.404 57.199 110.917 58.2516L115.134 66.9007L117.11 71.6401C117.122 71.6683 117.149 71.6866 117.18 71.6866C117.225 71.6866 117.261 71.6464 117.255 71.6011C116.909 68.9815 116.693 66.3443 116.61 63.7005V58.8544C116.61 57.5713 117.65 56.5312 118.933 56.5312C120.216 56.5312 121.256 57.5713 121.256 58.8544V75.1089C121.256 76.7977 119.887 78.1667 118.198 78.1667C117.024 78.1667 115.954 77.4946 115.444 76.4371L111.251 67.7414L109.275 63.0557C109.263 63.0269 109.235 63.0082 109.204 63.0082C109.158 63.0082 109.122 63.047 109.127 63.0925C109.347 65.4875 109.748 68.4115 109.748 70.9942V75.85C109.748 77.133 108.708 78.1731 107.425 78.1731C106.142 78.1731 105.102 77.133 105.102 75.85V59.5938Z" fill="white"/>
</svg>