<svg width="24" height="24" viewBox="0 0 24 24" fill="none" xmlns="http://www.w3.org/2000/svg">
<g id="Frame" clip-path="url(#clip0_1010_39022)">
<path id="Vector" d="M22.1235 3.75H9.1485C9.07785 3.74999 9.00863 3.76994 8.94881 3.80755C8.889 3.84516 8.84103 3.89891 8.81043 3.96259C8.77983 4.02628 8.76785 4.09731 8.77586 4.16751C8.78386 4.23771 8.81154 4.30422 8.8557 4.35937L10.5057 6.42187C10.6808 6.64173 10.9033 6.81916 11.1566 6.94092C11.4099 7.06267 11.6875 7.1256 11.9685 7.125H23.6235C23.723 7.125 23.8183 7.08549 23.8887 7.01517C23.959 6.94484 23.9985 6.84946 23.9985 6.75V5.625C23.9979 5.1279 23.8002 4.65133 23.4487 4.29982C23.0972 3.94832 22.6206 3.75059 22.1235 3.75Z" fill="#FFB125"/>
<g id="Vector_2" filter="url(#filter0_d_1010_39022)">
<path d="M24 6.375H11.97C11.8016 6.375 11.6353 6.33712 11.4835 6.26417C11.3317 6.19121 11.1983 6.08505 11.0931 5.95354L9.2175 3.609C8.97227 3.30147 8.66078 3.05327 8.30626 2.88289C7.95174 2.71251 7.56334 2.62436 7.17 2.625H1.875C1.37772 2.625 0.900806 2.82255 0.549175 3.17418C0.197544 3.52581 0 4.00272 0 4.5L0 19.5C0 19.9973 0.197544 20.4742 0.549175 20.8258C0.900806 21.1775 1.37772 21.375 1.875 21.375H22.125C22.6223 21.375 23.0992 21.1775 23.4508 20.8258C23.8025 20.4742 24 19.9973 24 19.5V6.375Z" fill="#FCD354"/>
</g>
</g>
<defs>
<filter id="filter0_d_1010_39022" x="-4" y="2.625" width="32" height="26.75" filterUnits="userSpaceOnUse" color-interpolation-filters="sRGB">
<feFlood flood-opacity="0" result="BackgroundImageFix"/>
<feColorMatrix in="SourceAlpha" type="matrix" values="0 0 0 0 0 0 0 0 0 0 0 0 0 0 0 0 0 0 127 0" result="hardAlpha"/>
<feOffset dy="4"/>
<feGaussianBlur stdDeviation="2"/>
<feComposite in2="hardAlpha" operator="out"/>
<feColorMatrix type="matrix" values="0 0 0 0 0 0 0 0 0 0 0 0 0 0 0 0 0 0 0.25 0"/>
<feBlend mode="normal" in2="BackgroundImageFix" result="effect1_dropShadow_1010_39022"/>
<feBlend mode="normal" in="SourceGraphic" in2="effect1_dropShadow_1010_39022" result="shape"/>
</filter>
<clipPath id="clip0_1010_39022">
<rect width="24" height="24" fill="white"/>
</clipPath>
</defs>
</svg>
